<?xml version="1.0" standalone="no"?>
<!DOCTYPE svg PUBLIC "-//W3C//DTD SVG 20010904//EN"
 "http://www.w3.org/TR/2001/REC-SVG-20010904/DTD/svg10.dtd">
<svg version="1.0" xmlns="http://www.w3.org/2000/svg"
 width="1280.000000pt" height="1280.000000pt" viewBox="0 0 1280.000000 1280.000000"
 preserveAspectRatio="xMidYMid meet">
<metadata>
Created by potrace 1.14, written by Peter Selinger 2001-2017
</metadata>
<g transform="translate(0.000000,1280.000000) scale(0.100000,-0.100000)"
fill="#000000" stroke="none">
<path d="M5748 12105 c-2 -2 -57 -6 -123 -10 -66 -3 -131 -8 -145 -10 -14 -2
-64 -6 -112 -10 -49 -3 -96 -8 -105 -9 -10 -2 -45 -7 -78 -11 -32 -4 -66 -8
-75 -10 -8 -1 -42 -6 -75 -10 -32 -4 -67 -9 -77 -11 -10 -2 -26 -6 -35 -8 -19
-4 -124 -19 -133 -18 -3 0 -15 -4 -26 -9 -12 -4 -42 -11 -65 -14 -24 -4 -82
-16 -129 -27 -47 -11 -94 -22 -105 -24 -50 -8 -462 -127 -500 -143 -28 -13
-109 -43 -115 -43 -3 0 -15 -4 -28 -9 -13 -5 -29 -9 -36 -9 -6 0 -16 -4 -22
-9 -5 -5 -27 -14 -49 -21 -22 -7 -129 -51 -237 -97 -292 -124 -669 -317 -913
-466 -349 -214 -495 -315 -708 -491 -208 -171 -430 -389 -596 -586 -35 -41
-73 -86 -84 -100 -43 -49 -103 -127 -199 -255 -53 -71 -101 -135 -106 -141
-16 -18 -147 -216 -202 -304 -115 -184 -249 -443 -336 -650 -8 -19 -19 -43
-24 -52 -6 -10 -10 -23 -10 -30 0 -7 -6 -25 -14 -40 -12 -23 -95 -261 -102
-293 -2 -5 -16 -57 -33 -113 -16 -57 -32 -116 -34 -130 -3 -15 -10 -47 -17
-72 -7 -25 -14 -54 -16 -65 -2 -11 -8 -40 -12 -65 -11 -55 -29 -161 -37 -215
-3 -22 -8 -51 -10 -65 -31 -178 -27 -477 11 -760 9 -63 17 -128 19 -145 2 -16
7 -149 10 -295 3 -146 7 -278 9 -295 2 -16 7 -64 11 -105 4 -41 9 -87 11 -103
7 -61 25 -183 29 -207 2 -14 7 -41 9 -60 39 -286 195 -815 341 -1155 52 -121
79 -179 151 -320 94 -186 101 -198 205 -370 44 -71 85 -139 92 -150 7 -11 14
-22 17 -25 3 -3 34 -48 69 -100 36 -52 67 -97 70 -100 3 -3 22 -27 40 -55 19
-27 38 -52 41 -55 4 -3 31 -37 61 -76 216 -283 579 -653 874 -891 39 -31 75
-62 80 -68 6 -6 64 -52 130 -101 66 -49 124 -93 130 -97 13 -10 186 -128 211
-144 147 -94 253 -160 269 -169 11 -6 77 -43 147 -82 209 -118 485 -251 689
-332 57 -23 118 -48 134 -55 17 -7 57 -23 90 -34 33 -12 67 -25 75 -28 8 -3
17 -7 20 -8 3 0 61 -19 130 -42 69 -23 159 -51 200 -63 41 -12 86 -26 100 -31
33 -11 290 -76 355 -89 84 -17 99 -21 115 -25 8 -2 31 -7 50 -10 19 -3 46 -8
60 -10 108 -22 179 -34 297 -50 15 -2 42 -6 58 -9 31 -5 120 -16 165 -21 14
-1 59 -6 100 -10 236 -24 380 -30 715 -29 286 0 492 7 580 19 17 2 59 7 95 9
92 8 182 17 205 22 11 3 40 7 65 9 39 5 246 37 305 49 18 3 51 9 125 23 58 10
213 46 325 74 66 17 127 32 135 34 25 5 116 33 340 106 283 92 504 180 770
306 63 31 129 61 145 69 17 8 80 41 140 74 61 34 118 63 128 67 9 3 17 9 17
14 0 5 4 9 9 9 8 0 129 69 215 123 153 95 446 301 574 403 297 237 616 541
822 784 25 29 50 58 55 64 23 26 103 124 130 161 16 22 32 42 35 45 23 20 250
347 250 361 0 5 3 9 8 9 4 0 12 9 17 19 6 11 42 73 81 138 87 143 120 204 195
353 60 120 139 288 139 296 0 3 8 24 18 47 10 23 27 62 37 87 10 25 23 59 30
75 17 41 87 250 118 355 126 417 197 712 222 920 2 14 6 39 9 55 3 17 8 57 12
90 3 33 7 71 10 85 25 158 25 889 -1 1018 -2 13 -6 51 -9 85 -6 69 -14 134
-22 187 -3 19 -8 46 -10 60 -2 14 -7 41 -10 60 -3 19 -8 46 -10 60 -3 14 -9
48 -15 76 -5 28 -12 61 -14 75 -9 47 -13 65 -45 194 -17 72 -35 141 -40 155
-4 14 -20 66 -35 115 -59 196 -150 433 -261 673 -18 40 -33 73 -33 75 -1 4
-106 209 -143 277 -82 151 -225 388 -248 410 -3 3 -22 31 -43 63 -44 67 -223
307 -241 322 -6 6 -22 24 -35 40 -100 130 -402 434 -581 585 -36 30 -67 57
-70 60 -11 11 -149 118 -220 172 -117 87 -481 328 -495 328 -2 0 -36 19 -77
43 -64 38 -243 135 -290 159 -27 13 -56 27 -75 37 -46 24 -238 113 -328 151
-55 23 -119 51 -143 62 -70 31 -317 123 -452 168 -69 23 -132 44 -140 47 -8 4
-20 7 -26 8 -10 3 -133 39 -236 71 -26 8 -55 14 -66 14 -10 0 -22 3 -26 7 -3
4 -13 8 -20 9 -7 1 -51 11 -97 22 -82 20 -277 60 -331 67 -15 2 -53 9 -85 14
-32 6 -80 13 -108 16 -27 3 -61 8 -75 11 -14 2 -50 6 -80 9 -30 3 -75 7 -100
10 -97 10 -211 17 -355 21 -82 3 -179 7 -215 9 -221 14 -348 18 -712 20 -224
2 -408 2 -410 0z m2738 -4751 c3 -16 2 -26 -1 -23 -3 4 -8 19 -11 35 -3 16 -2
26 1 23 3 -4 8 -19 11 -35z m-1806 2 c178 -11 351 -26 385 -32 11 -2 40 -6 65
-9 25 -3 59 -7 75 -10 17 -2 53 -7 80 -11 28 -3 59 -8 70 -10 11 -3 36 -7 55
-10 19 -2 58 -9 85 -14 28 -5 61 -12 75 -14 216 -40 636 -150 846 -222 87 -30
88 -30 80 0 -3 14 -1 28 5 32 11 6 7 -159 -6 -265 -23 -186 -117 -406 -230
-539 -50 -58 -186 -192 -196 -192 -4 0 -14 -6 -21 -13 -29 -29 -175 -121 -232
-147 -104 -47 -473 -168 -566 -186 -14 -3 -34 -8 -45 -11 -11 -4 -24 -8 -30
-9 -19 -4 -151 -33 -175 -38 -14 -3 -36 -7 -50 -10 -13 -3 -42 -8 -65 -11 -59
-9 -97 -15 -125 -20 -36 -7 -117 -17 -164 -20 -23 -2 -84 -7 -136 -11 -168
-13 -548 -7 -639 11 -12 2 -50 7 -84 10 -34 3 -69 8 -77 10 -8 3 -35 7 -59 10
-24 3 -65 10 -90 16 -78 17 -213 49 -276 65 -33 8 -69 17 -80 19 -202 44 -539
151 -713 227 -305 133 -489 287 -634 528 -21 35 -78 176 -78 192 0 15 80 65
195 123 44 22 82 42 85 45 7 8 105 54 201 95 46 20 93 40 104 45 170 78 675
233 858 264 15 3 35 7 45 10 9 3 33 7 52 10 33 5 48 8 110 21 14 3 41 7 60 9
19 2 64 9 100 15 66 10 112 15 230 26 36 4 81 8 100 10 19 2 87 7 150 10 63 4
116 7 117 8 4 4 457 -2 543 -7z m1812 -61 c3 -14 2 -27 -1 -30 -4 -2 -8 10 -9
26 -3 36 4 38 10 4z m7 -92 c-1 -53 -6 -49 -11 10 -2 20 0 37 4 37 4 0 8 -21
7 -47z m7 -83 c1 -16 -1 -30 -5 -30 -3 0 -7 14 -7 30 -1 17 1 30 5 30 3 0 7
-13 7 -30z"/>
</g>
</svg>
